<svg data-name="Calque 1" xmlns="http://www.w3.org/2000/svg" version="1.1" viewBox="0 0 680.4 281.2">
  <g fill="#fff">
    <path d="M151.4 89.4l.5-.3-.2-.4.4.4c.2-.1.5-.2.7-.4 2.2-1.2 3.7-2.7 4.5-4.3 0-.1.1-.3.2-.4 0-.3 0-.4.1-.5v-.2c0-.1.1-.2.1-.4V82l-.1-1.5v-.2l-.3-1s0-.2-.1-.3l-.5.2.4-.3s0-.2-.1-.3l-.4.2.4-.4-.4-.6-.4.3.4-.4-1.3-1.6-1.6-1.5-2-1.3c-6.3-3.3-14.3-3.3-15.2-3.3h-.5c-1.1 0-4.3.1-8.9 1.3l-.7.2c-1.4.4-2.9.8-4.5 1.4L95.1 83.2c-.5.2-.8.5-1.1.9v2c0 .2 0 .2.1.4 0 0 0 .1.2.2l.3.3.1.1 22.5 14.7c.4.2.8.4 1.2.4s.5 0 .8-.2l31.3-12.3c.4-.1.7-.3 1-.5zm.8-10.8l-.2.5c.9.8 1.4 1.6 1.6 2.3v.9c-.3.7-1 1.4-2.2 2.2-1.3-1.2-2.7-1.9-2.7-1.9-5.5-2.9-12.3-2.9-13.1-2.8-.8 0-5.3 0-12.6 2.4L105.4 89l-4.8-3.1 22.8-8.8c7-2.4 11.5-2.6 12.7-2.6h.4s4.5 0 9 1.2c1.5.4 2.9 1 4.1 1.6l.2-.4v.5c.1.1.8.6 1.5 1.2l.4.4.3-.4zm-27.7 7.7c6.5-2.2 10.5-2.2 10.9-2.2h.2c.7 0 6.6 0 11 2.3l.2.1-28.3 11.1-8.7-5.7 14.7-5.7zm33-4.2zm-.7-2.9zm-.4-.7zm-62.1 7.4z"/>
    <path d="M224.2 221.9l-52.5-110.5.9-.4c8.3-3.9 10-5.1 12.6-8.9 2.7-4 3.2-12.7 3.3-17.5v-2.4c-1-8.8-13.4-15.3-14-15.5-15.3-7.4-35.1-6.8-35.8-6.8-1.3 0-13.7-.2-34.6 6.7L56.6 84c-.8.3-1.3 1-1.4 1.8v113c-.1.7.2 1.4.8 1.8l55.7 38.5.2.1h.1s0 .1.2.1h1.1l12.8-4.4c.9-.3 1.5-1.1 1.5-2.1V153l32.5 76c.2.4.5.8 1 1.1l17.9 9.7h.1s.1 0 .2.1h1.5l42.3-15.2c.6-.2 1-.7 1.3-1.2.2-.6.2-1.2 0-1.8zm-48.9 11.2l-11.5-6.3-36.2-84.7v-17.5l47.7 108.5zm-52-115.6v114l-8.2 2.8V120.8l8.2-3.3zm-12.5 3v112.7l-51.4-35.5V89.8c.1 0 51.4 30.7 51.4 30.7zm15.8-8.1l-.3.4.2-.5h-.2c0-.1-.1-.1-.2-.2h-.6v.5-.5h-.6s-.2 0-.3.1l-11.5 4.6-50.8-30.4 43.2-15.8c20.6-6.9 32.9-6.5 33-6.5h.2c.2 0 19.5-.7 33.8 6.3 3 1.5 10.9 6.7 11.6 12.1v1.4l-.5 2 .5.2h-.5v.1l.5.2h-.5l.5.2h-.5v.3c-.3.4-.6.9-.9 1.3 0 .1-.2.2-.3.3l-.2.2-.7.7-.2.2c-1.9 1.7-4.5 3.3-7.9 4.9l-9.8 4.1c-.5.2-1 .7-1.2 1.2-.2.6-.2 1.2 0 1.7l57 120.1-38.2 13.7-53.7-122s0-.1-.1-.2c0-.1 0-.2-.1-.2l-.6-.5zM184 86.6zm-9.1 11.8c3.6-1.6 6.5-3.4 8.6-5.3-.5 3-1.1 5.3-1.9 6.5-2 2.9-3 3.8-10.9 7.4l-.9.4-2.7-5.8 7.8-3.3zm-48.2 14.7zm-13.3 125.8zm66 .7z"/>
  </g>
  <path d="M339.2 63.4c16.9 0 29.7 8.7 29.7 26.7s-7.3 22.6-18.2 26.2l28.3 33.9h-25.2L328.9 118h-1.6v32.2h-19.8V63.4h31.7zm-11.8 38.9h5.6c7.8 0 15.2-2.6 15.2-11.5s-7.4-11.6-15.2-11.6h-5.6v23.1zm97.1-40.4c24 0 43.8 19.7 43.8 45s-19.8 45-43.8 45-43.8-19.7-43.8-45 19.8-45 43.8-45zm0 71c15.3 0 22.4-13.1 22.4-26s-7.2-26-22.4-26-22.4 13.1-22.4 26 7.2 26 22.4 26zm94.1-71c24 0 43.8 19.7 43.8 45s-19.8 45-43.8 45-43.8-19.7-43.8-45 19.8-45 43.8-45zm0 71c15.3 0 22.4-13.1 22.4-26s-7.2-26-22.4-26-22.4 13.1-22.4 26 7.2 26 22.4 26zM623 63.4v17.4h-30.4v17.3h28.1v17.4h-28.1v34.8h-19.8V63.4H623zm-373.4 61.9h7.7v9.2h30.9v8.8h-30.9v9.2h-7.7v-27.1zm0-11.9H265V101h-15.4v-8.8h38.6v8.8h-15.5v12.4h15.5v8.8h-38.6v-8.8zm0-49h7.7v13.3h7.7V65h7.7v12.7h7.8V64.4h7.7v22.1h-38.6V64.4zm0 104h373.5v7.4H249.6zm.1 44.8c0-12.8 10.1-23 23.9-23s10.6 1.7 14.1 4.1l-4.9 8.3c-2.2-1.5-5.4-2.4-8.5-2.4-8.5 0-13.6 5.6-13.6 13.1s5.1 13.1 13.6 13.1 6.4-.9 8.5-2.4l4.9 8.3c-3.4 2.4-8.7 4.1-14.1 4.1-13.8 0-23.9-10.2-23.9-23zm44.3 22.1v-44.4h10.1v17.7h14.2v-17.7h10.1v44.4h-10.1v-17.8h-14.2v17.8H294zm43.3 0v-44.4h25.4v8.9h-15.3v8.8H362v8.9h-14.6v8.9h15.3v8.9h-25.4zM387 191c8.6 0 15.1 4.7 15.1 13.7s-3.8 11.3-9.6 12.9l14.7 17.7h-12.8L382 219.2h-1.2v16.1h-10.1v-44.4h16.2zm-6.1 19.4h2.9c4 0 7.7-1.3 7.7-5.7s-3.7-5.7-7.7-5.7h-2.9v11.4zm30.8 24.9v-44.4h13.8c8.5 0 13.7 3.7 13.7 11.1s-1.9 7.8-5.5 9.7c6.2 1 9.5 4.8 9.5 10.9s-5.6 12.6-14.5 12.6h-16.8zm10.1-36.5v9.5h1.2c4.1 0 6.3-1.7 6.3-4.8s-2-4.7-6.3-4.7h-1.2zm0 18.2v10.5h3.2c5 0 7.4-1.7 7.4-5.1s-2.6-5.4-7.4-5.4h-3.2zm48.4-26.8c12.4 0 22.4 10.2 22.4 23s-9.9 23-22.4 23-22.4-10.2-22.4-23 9.9-23 22.4-23zm0 36.3c6.8 0 11.5-5.4 11.5-13.3s-4.7-13.3-11.5-13.3-11.5 5.4-11.5 13.3 4.7 13.3 11.5 13.3zm28.7-6.8V191H509v25.7c0 7 2 9.6 7.2 9.6s7.2-2.6 7.2-9.6V191h10.1v28.7c0 10.9-5.9 16.5-17.3 16.5s-17.3-5.6-17.3-16.5zm59.2-28.7c8.6 0 15.1 4.7 15.1 13.7s-3.8 11.3-9.6 12.9l14.7 17.7h-12.8l-12.4-16.1h-1.2v16.1h-10.1v-44.4H558zm-6.1 19.4h2.9c4 0 7.7-1.3 7.7-5.7s-3.7-5.7-7.7-5.7H552v11.4zm51.1-20.2c6.7 0 11.8 2.7 16.2 7.1l-6 6c-2-2.4-5.6-4-9.5-4-8 0-12.2 6.6-12.2 13.8s4.7 13.7 11.5 13.7 9.4-3.5 9.4-8.1v-.4h-10.2v-7.8h20.5v6c0 12.9-9.7 19.6-20 19.6s-22.1-10.3-22.1-23 9.1-23 22.4-23z" fill="#fff"/>
</svg>
