<?xml version="1.0" encoding="utf-8"?>
<!-- Generator: Adobe Illustrator 26.1.0, SVG Export Plug-In . SVG Version: 6.00 Build 0)  -->
<svg version="1.1" id="Calque_1" xmlns="http://www.w3.org/2000/svg" xmlns:xlink="http://www.w3.org/1999/xlink" x="0px" y="0px"
	 viewBox="0 0 244.1 53.8" style="enable-background:new 0 0 244.1 53.8;" xml:space="preserve">
<style type="text/css">
	.st0{fill:#373CF5;}
	.st1{fill:#FFFFFF;}
</style>
<g>
	<path class="st0" d="M217.7,53.8H26.9C12.1,53.8,0,41.7,0,26.9C0,12.1,12.1,0,26.9,0h190.8c14.8,0,26.9,12.1,26.9,26.9
		C244.6,41.7,232.5,53.8,217.7,53.8"/>
</g>
<g>
	<rect x="82.8" y="18.9" class="st1" width="4" height="17.1"/>
	<path class="st1" d="M104.9,25.8c0,2,0.2,4.1,0.5,6.4l-5.1-13.3h-5V36H99v-6.3c0-1.4,0-2.5-0.1-3.5c-0.1-1-0.2-2.1-0.4-3.4
		l4.9,13.2h5.2V18.9h-3.6V25.8z"/>
	<path class="st1" d="M118.4,18.5c-1.6,0-3,0.4-4.1,1.1c-1.2,0.7-2,1.7-2.7,3.1c-0.6,1.3-0.9,2.9-0.9,4.8c0,1.9,0.3,3.5,0.9,4.8
		c0.6,1.3,1.5,2.4,2.7,3.1c1.2,0.7,2.5,1.1,4.1,1.1c1.6,0,3-0.4,4.1-1.1c1.2-0.7,2-1.7,2.7-3.1c0.6-1.3,0.9-3,0.9-4.8
		c0-2.8-0.7-5-2-6.6C122.7,19.3,120.8,18.5,118.4,18.5z M121,32c-0.6,0.9-1.4,1.4-2.6,1.4c-1.2,0-2-0.5-2.6-1.4
		c-0.6-1-0.9-2.5-0.9-4.6s0.3-3.6,0.9-4.6c0.6-0.9,1.4-1.4,2.6-1.4c1.2,0,2,0.5,2.6,1.4c0.6,0.9,0.9,2.5,0.9,4.6
		C121.9,29.6,121.6,31.1,121,32z"/>
	<path class="st1" d="M140.1,26.9c0.5-0.7,0.8-1.6,0.8-2.8c0-1.8-0.6-3.1-1.8-3.9c-1.2-0.9-2.9-1.3-5.3-1.3h-5.6V36h4v-6.5h1.6
		l3.5,6.5h4.6l-4.3-7.3C138.7,28.2,139.6,27.6,140.1,26.9z M136,26c-0.5,0.4-1.1,0.6-2,0.6h-1.7v-4.9h1.5c1,0,1.7,0.2,2.2,0.6
		c0.5,0.4,0.7,1,0.7,1.8C136.7,25,136.5,25.6,136,26z"/>
	<path class="st1" d="M153.8,18.9l-2.4,11.6l-2.6-11.6h-5.1L142.4,36h3.9l0.3-6.6c0-1,0.1-2,0.1-3c0-1.3,0-2.6-0.1-4l2.8,11.9h3.8
		l2.6-11.9c0,0.9-0.1,1.8-0.1,2.7c0,1.2,0,2.7,0.1,4.3l0.3,6.7h4l-1.3-17.1H153.8z"/>
	<path class="st1" d="M165.6,18.9L160.5,36h4.2l0.9-3.7h5l0.9,3.7h4.3l-5.2-17.1H165.6z M166.2,29.4l1.8-7.5l1.8,7.5H166.2z"/>
	<path class="st1" d="M186.2,25.8c0,2,0.2,4.1,0.5,6.4l-5.1-13.3h-5V36h3.6v-6.3c0-1.4,0-2.5-0.1-3.5c-0.1-1-0.2-2.1-0.4-3.4
		l4.9,13.2h5.2V18.9h-3.6V25.8z"/>
	<path class="st1" d="M204,20.7c-1.6-1.2-3.8-1.8-6.4-1.8h-4.8V36h5.1c2.5,0,4.6-0.6,6.1-1.9c1.6-1.3,2.4-3.5,2.4-6.7
		C206.4,24.1,205.6,21.9,204,20.7z M201.2,31.8c-0.7,0.8-1.7,1.2-3,1.2h-1.3V21.8h1.3c0.9,0,1.6,0.2,2.2,0.5
		c0.6,0.3,1.1,0.9,1.4,1.7c0.3,0.8,0.5,1.9,0.5,3.4C202.2,29.5,201.9,31,201.2,31.8z"/>
	<rect x="208.6" y="18.9" class="st1" width="4" height="17.1"/>
	<polygon class="st1" points="219.6,28.7 224.9,28.7 224.9,25.9 219.6,25.9 219.6,21.8 225.6,21.8 226.1,18.9 215.6,18.9 215.6,36 
		226.1,36 226.1,33.1 219.6,33.1 	"/>
	<path class="st1" d="M29.3,38c-6.1,0-11.1-5-11.1-11.1c0-6.1,5-11.1,11.1-11.1c1.6,0,3.1,0.3,4.5,0.9l2-4.7c-2-0.9-4.2-1.4-6.5-1.4
		c-9,0-16.3,7.3-16.3,16.3c0,9,7.3,16.3,16.3,16.3c4.3,0,7.6-1.6,10-3.5l-3.4-3.8C34,37.3,31.8,38,29.3,38z"/>
	<path class="st1" d="M29.3,23.3c0.5,0,1,0.1,1.4,0.3l2-4.7c-1-0.4-2.2-0.7-3.5-0.7c-4.8,0-8.7,3.9-8.7,8.7c0,4.8,3.9,8.7,8.7,8.7
		c1.8,0,3.7-0.7,4.9-1.5c0,0-3.2-3.6-3.5-3.9c-0.3,0.1-0.9,0.3-1.4,0.3c-1.9,0-3.5-1.6-3.5-3.5C25.8,25,27.4,23.3,29.3,23.3z"/>
	<path class="st1" d="M35.8,23.5c0.4,0.9,0.8,2.1,0.8,3.4c0,1.6-0.7,3.4-1.6,4.6l3.5,3.8c1.9-2.1,3.3-5.1,3.3-8.4
		c0-2-0.5-3.9-1.3-5.6L35.8,23.5z"/>
	<path class="st1" d="M38.3,12.7l-4,8.9l0,0l8.8-4.1C41.9,15.6,40.1,13.8,38.3,12.7z"/>
	<path class="st1" d="M64.3,32.9c-0.5,0.2-1.1,0.4-1.7,0.4c-1.2,0-2.1-0.5-2.8-1.4c-0.7-1-1-2.4-1-4.4c0-2,0.3-3.5,1-4.5
		c0.7-1,1.6-1.5,2.7-1.5c0.6,0,1.1,0.1,1.6,0.3c0.5,0.2,1,0.5,1.5,0.9l1.9-2.3c-0.7-0.6-1.5-1.1-2.4-1.4c-0.8-0.3-1.8-0.5-2.8-0.5
		c-1.5,0-2.8,0.3-4,1c-1.2,0.7-2.1,1.7-2.8,3.1c-0.7,1.3-1,3-1,4.8c0,1.9,0.3,3.5,1,4.9c0.6,1.4,1.6,2.4,2.7,3.1
		c1.2,0.7,2.5,1,4.1,1c1.1,0,2.1-0.2,3-0.6c0.9-0.4,1.7-0.9,2.3-1.6L66,31.9C65.4,32.3,64.9,32.7,64.3,32.9z"/>
	<path class="st1" d="M77.8,32.9c-0.5,0.2-1.1,0.4-1.7,0.4c-1.2,0-2.1-0.5-2.8-1.4c-0.7-1-1-2.4-1-4.4c0-2,0.3-3.5,1-4.5
		c0.7-1,1.6-1.5,2.7-1.5c0.6,0,1.1,0.1,1.6,0.3c0.5,0.2,1,0.5,1.5,0.9l1.9-2.3c-0.7-0.6-1.5-1.1-2.4-1.4c-0.8-0.3-1.8-0.5-2.8-0.5
		c-1.5,0-2.8,0.3-4,1c-1.2,0.7-2.1,1.7-2.8,3.1c-0.7,1.3-1,3-1,4.8c0,1.9,0.3,3.5,1,4.9c0.6,1.4,1.6,2.4,2.7,3.1
		c1.2,0.7,2.5,1,4.1,1c1.1,0,2.1-0.2,3-0.6c0.9-0.4,1.7-0.9,2.3-1.6l-1.8-2.3C78.8,32.3,78.3,32.7,77.8,32.9z"/>
</g>
</svg>
